# xmcd
#
# Track frame offsets:
#	150
#	12802
#	30750
#	48765
#	63895
#	78292
#	91232
#	106622
#	125902
#	142965
#	159800
#	173982
#	188940
#	202997
#	221767
#
# Disc length: 3136 seconds
#
# Revision: 1
# Processed by: cddbd v1.5.2PL0 Copyright (c) Steve Scherf et al.
# Submitted via: audiograbber 1.83.01
#
DISCID=b30c3e0f
DTITLE=Various Artist - SCSP8401
DYEAR=1900
DGENRE=Country
TTITLE0=Barbara Mandrell - Happy Birthday, Dear Heartache 
TTITLE1=Tanya Tucker - Love Me Like You Used To 
TTITLE2=Crystal Gayle - I'll Get Over You 
TTITLE3=Barbara Mandrell - Crackers
TTITLE4=Barbara Mandrell - In Times Like These 
TTITLE5=Crystal Gayle - Somebody Loves You
TTITLE6=Tanya Tucker - What's Your Mama's Name
TTITLE7=Crystal Gayle - You Never Miss A Real Good Thing
TTITLE8=Crystal Gayle - It's Like We Never Said Goodbye
TTITLE9=Tanya Tucker - Lizzie and The Rainman
TTITLE10=Tanya Tucker - Can I See You Tonight
TTITLE11=Barbara Mandrell - Til You're Gone
TTITLE12=Tanya Tucker - One Love At A Time
TTITLE13=Barbara Mandrell - There's No Love In Tennessee
TTITLE14=Crystal Gayle - I've Cried
EXTD=
EXTT0=
EXTT1=
EXTT2=
EXTT3=
EXTT4=
EXTT5=
EXTT6=
EXTT7=
EXTT8=
EXTT9=
EXTT10=
EXTT11=
EXTT12=
EXTT13=
EXTT14=
PLAYORDER=
